<svg xmlns="http://www.w3.org/2000/svg" version="1.1" xmlns:xlink="http://www.w3.org/1999/xlink" xmlns:svgjs="http://svgjs.dev/svgjs" width="1500" height="1500" viewBox="0 0 1500 1500"><rect width="1500" height="1500" fill="#ffffff"></rect><g transform="matrix(0.6666666666666666,0,0,0.6666666666666666,249.39393939393938,438.5856950067477)"><svg viewBox="0 0 396 247" data-background-color="#ffffff" preserveAspectRatio="xMidYMid meet" height="935" width="1500" xmlns="http://www.w3.org/2000/svg" xmlns:xlink="http://www.w3.org/1999/xlink"><g id="tight-bounds" transform="matrix(1,0,0,1,0.2400000000000091,-0.09999999999999432)"><svg viewBox="0 0 395.52 247.2" height="247.2" width="395.52"><g><svg></svg></g><g><svg viewBox="0 0 395.52 247.2" height="247.2" width="395.52"><g transform="matrix(1,0,0,1,75.54432000000001,90.73287763811751)"><svg viewBox="0 0 244.43135999999996 65.73424472376496" height="65.73424472376496" width="244.43135999999996"><g><svg viewBox="0 0 244.43135999999996 65.73424472376496" height="65.73424472376496" width="244.43135999999996"><g><svg viewBox="0 0 244.43136 65.73424472376497" height="65.73424472376496" width="244.43135999999996"><g><svg viewBox="0 0 244.43136 65.73424472376497" height="65.73424472376497" width="244.43136"><g id="textblocktransform"><svg viewBox="0 0 244.43136 65.73424472376497" height="65.73424472376497" width="244.43136" id="textblock"><g><svg viewBox="0 0 244.43136 65.73424472376497" height="65.73424472376497" width="244.43136"><g transform="matrix(1,0,0,1,0,0)"><svg width="244.43136" viewBox="1.65 -36.85 171.04 46" height="65.73424472376497" data-palette-color="#906b7f"><path d="M9.5 0L5.25 0 5.25-35.85 7.75-35.85Q8.4-35.85 8.75-35.7 9.1-35.55 9.45-35L9.45-35 30.2-8Q30.1-8.65 30.08-9.28 30.05-9.9 30.05-10.45L30.05-10.45 30.05-35.85 34.3-35.85 34.3 0 31.85 0Q31.3 0 30.93-0.2 30.55-0.4 30.15-0.9L30.15-0.9 9.4-27.85Q9.45-27.25 9.47-26.65 9.5-26.05 9.5-25.55L9.5-25.55 9.5 0ZM6.75 0L1.65 0 1.65-2.05Q1.65-2.5 1.85-2.78 2.05-3.05 2.45-3.1L2.45-3.1 6.2-3.9 6.75 0ZM13.6 0L8.5 0 9.05-3.9 12.8-3.1Q13.2-3.05 13.4-2.78 13.6-2.5 13.6-2.05L13.6-2.05 13.6 0ZM1.65-35.85L6.75-35.85 6.2-31.95 2.45-32.75Q2.05-32.85 1.85-33.1 1.65-33.35 1.65-33.8L1.65-33.8 1.65-35.85ZM25.95-35.85L31.05-35.85 30.5-31.95 26.75-32.75Q26.35-32.85 26.15-33.1 25.95-33.35 25.95-33.8L25.95-33.8 25.95-35.85ZM32.8-35.85L37.9-35.85 37.9-33.8Q37.9-33.35 37.7-33.1 37.5-32.85 37.1-32.75L37.1-32.75 33.35-31.95 32.8-35.85ZM53.4-25.75L53.4-25.75Q57.2-25.75 59.87-24.13 62.55-22.5 64-19.55 65.45-16.6 65.45-12.7L65.45-12.7Q65.45-8.8 64-5.85 62.55-2.9 59.87-1.28 57.2 0.35 53.4 0.35L53.4 0.35Q49.7 0.35 46.97-1.28 44.25-2.9 42.77-5.85 41.3-8.8 41.3-12.7L41.3-12.7Q41.3-16.6 42.77-19.55 44.25-22.5 46.97-24.13 49.7-25.75 53.4-25.75ZM53.4-3.15L53.4-3.15Q57.15-3.15 59-5.65 60.85-8.15 60.85-12.65L60.85-12.65Q60.85-15.7 60.02-17.82 59.2-19.95 57.55-21.1 55.9-22.25 53.4-22.25L53.4-22.25Q50.85-22.25 49.17-21.08 47.5-19.9 46.7-17.75 45.9-15.6 45.9-12.65L45.9-12.65Q45.9-8.3 47.75-5.73 49.6-3.15 53.4-3.15ZM89.59 0L85.14 0 85.14-36.85 89.59-36.85 89.59 0ZM86.64 0L81.54 0 81.54-2.05Q81.54-2.5 81.74-2.78 81.94-3.05 82.34-3.1L82.34-3.1 86.09-3.9 86.64 0ZM93.19 0L88.09 0 88.64-3.9 92.39-3.1Q92.79-3.05 92.99-2.78 93.19-2.5 93.19-2.05L93.19-2.05 93.19 0ZM81.54-36.85L86.64-36.85 86.09-32.95 82.34-33.75Q81.94-33.85 81.74-34.1 81.54-34.35 81.54-34.8L81.54-34.8 81.54-36.85ZM107.89-25.75L107.89-25.75Q111.69-25.75 114.37-24.13 117.04-22.5 118.49-19.55 119.94-16.6 119.94-12.7L119.94-12.7Q119.94-8.8 118.49-5.85 117.04-2.9 114.37-1.28 111.69 0.35 107.89 0.35L107.89 0.35Q104.19 0.35 101.47-1.28 98.74-2.9 97.27-5.85 95.79-8.8 95.79-12.7L95.79-12.7Q95.79-16.6 97.27-19.55 98.74-22.5 101.47-24.13 104.19-25.75 107.89-25.75ZM107.89-3.15L107.89-3.15Q111.64-3.15 113.49-5.65 115.34-8.15 115.34-12.65L115.34-12.65Q115.34-15.7 114.52-17.82 113.69-19.95 112.04-21.1 110.39-22.25 107.89-22.25L107.89-22.25Q105.34-22.25 103.67-21.08 101.99-19.9 101.19-17.75 100.39-15.6 100.39-12.65L100.39-12.65Q100.39-8.3 102.24-5.73 104.09-3.15 107.89-3.15ZM133.19-25.75L133.19-25.75Q134.84-25.75 136.26-25.4 137.69-25.05 138.89-24.35L138.89-24.35 145.74-24.35 145.74-22.7Q145.74-22.3 145.49-22.03 145.24-21.75 144.69-21.65L144.69-21.65 141.84-21.25Q142.69-19.55 142.69-17.6L142.69-17.6Q142.69-15.1 141.44-13.28 140.19-11.45 138.04-10.45 135.89-9.45 133.19-9.45L133.19-9.45Q132.29-9.45 131.46-9.55 130.64-9.65 129.84-9.85L129.84-9.85Q129.04-9.35 128.61-8.78 128.19-8.2 128.19-7.65L128.19-7.65Q128.19-6.7 128.96-6.25 129.74-5.8 131.01-5.63 132.29-5.45 133.79-5.4 135.29-5.35 136.69-5.25L136.69-5.25Q138.99-5.05 140.91-4.55 142.84-4.05 144.01-2.85 145.19-1.65 145.19 0.65L145.19 0.65Q145.19 3.05 143.64 4.98 142.09 6.9 139.41 8.03 136.74 9.15 133.34 9.15L133.34 9.15Q130.04 9.15 127.54 8.3 125.04 7.45 123.64 5.95 122.24 4.45 122.24 2.45L122.24 2.45Q122.24 0.55 123.44-0.78 124.64-2.1 126.69-2.85L126.69-2.85Q125.64-3.35 124.99-4.2 124.34-5.05 124.34-6.45L124.34-6.45Q124.34-7.6 125.24-8.8 126.14-10 127.59-10.75L127.59-10.75Q125.69-11.8 124.64-13.55 123.59-15.3 123.59-17.6L123.59-17.6Q123.59-20.15 124.84-21.98 126.09-23.8 128.26-24.78 130.44-25.75 133.19-25.75ZM141.09 1.4L141.09 1.4Q141.09-0.05 139.91-0.68 138.74-1.3 137.09-1.5L137.09-1.5Q136.54-1.6 135.54-1.65 134.54-1.7 133.36-1.78 132.19-1.85 131.11-1.95 130.04-2.05 129.34-2.15L129.34-2.15Q127.94-1.45 127.04-0.48 126.14 0.5 126.14 1.85L126.14 1.85Q126.14 3.1 127.04 4.03 127.94 4.95 129.59 5.43 131.24 5.9 133.39 5.9L133.39 5.9Q135.59 5.9 137.31 5.38 139.04 4.85 140.06 3.85 141.09 2.85 141.09 1.4ZM133.19-12.4L133.19-12.4Q135.79-12.4 137.24-13.8 138.69-15.2 138.69-17.5L138.69-17.5Q138.69-19.8 137.29-21.18 135.89-22.55 133.19-22.55L133.19-22.55Q130.49-22.55 129.09-21.18 127.69-19.8 127.69-17.5L127.69-17.5Q127.69-15.2 129.14-13.8 130.59-12.4 133.19-12.4ZM160.64-25.75L160.64-25.75Q164.44-25.75 167.11-24.13 169.79-22.5 171.24-19.55 172.69-16.6 172.69-12.7L172.69-12.7Q172.69-8.8 171.24-5.85 169.79-2.9 167.11-1.28 164.44 0.35 160.64 0.35L160.64 0.35Q156.94 0.35 154.21-1.28 151.49-2.9 150.01-5.85 148.54-8.8 148.54-12.7L148.54-12.7Q148.54-16.6 150.01-19.55 151.49-22.5 154.21-24.13 156.94-25.75 160.64-25.75ZM160.64-3.15L160.64-3.15Q164.39-3.15 166.24-5.65 168.09-8.15 168.09-12.65L168.09-12.65Q168.09-15.7 167.26-17.82 166.44-19.95 164.79-21.1 163.14-22.25 160.64-22.25L160.64-22.25Q158.09-22.25 156.41-21.08 154.74-19.9 153.94-17.75 153.14-15.6 153.14-12.65L153.14-12.65Q153.14-8.3 154.99-5.73 156.84-3.15 160.64-3.15Z" opacity="1" transform="matrix(1,0,0,1,0,0)" fill="#000000" class="wordmark-text-0" data-fill-palette-color="primary" id="text-0"></path></svg></g></svg></g></svg></g></svg></g></svg></g></svg></g></svg></g><path d="M192.793 84.733L192.793 27.045 385.904 27.045 385.904 220.155 192.793 220.155 192.793 162.467 198.721 162.467 198.721 214.227 379.976 214.227 379.976 32.973 198.721 32.973 198.721 84.733Z" fill="#000000" stroke="transparent" data-fill-palette-color="tertiary"></path></svg></g><defs></defs></svg><rect width="395.52" height="247.2" fill="none" stroke="none" visibility="hidden"></rect></g></svg></g></svg>